<?xml version="1.0"?>
<svg xmlns="http://www.w3.org/2000/svg" viewBox="0 0 280 280" role="img" aria-label="The Human Question — official mark">
  <title>The Human Question · Dossier Seal · nOS Project · MMXXVI</title>
  
  <defs>
    <path id="thqArcTop" d="M 140,140 m -118,0 a 118,118 0 1,1 236,0 a 118,118 0 1,1 -236,0"></path>
    <path id="thqArcBot" d="M 140,140 m -96,0 a 96,96 0 1,0 192,0 a 96,96 0 1,0 -192,0"></path>
  </defs>

  
  <circle cx="140" cy="140" r="136" fill="none" stroke="#c9922a" stroke-width="1.5"></circle>
  <circle cx="140" cy="140" r="128" fill="none" stroke="#c9922a" stroke-width="0.5" opacity="0.6"></circle>
  <circle cx="140" cy="140" r="100" fill="none" stroke="#c9922a" stroke-width="0.5" opacity="0.4"></circle>

  
    <line x1="140.00" y1="16.00" x2="140.00" y2="22.00" stroke="#c9922a" stroke-width="1.2" opacity="0.9"></line>
    <line x1="152.96" y1="16.68" x2="152.33" y2="22.65" stroke="#c9922a" stroke-width="0.4" opacity="0.5"></line>
    <line x1="165.78" y1="18.71" x2="164.53" y2="24.58" stroke="#c9922a" stroke-width="0.4" opacity="0.5"></line>
    <line x1="178.32" y1="22.07" x2="176.46" y2="27.78" stroke="#c9922a" stroke-width="0.4" opacity="0.5"></line>
    <line x1="190.44" y1="26.72" x2="187.99" y2="32.20" stroke="#c9922a" stroke-width="0.4" opacity="0.5"></line>
    <line x1="202.00" y1="32.61" x2="199.00" y2="37.81" stroke="#c9922a" stroke-width="1.2" opacity="0.9"></line>
    <line x1="212.89" y1="39.68" x2="209.36" y2="44.54" stroke="#c9922a" stroke-width="0.4" opacity="0.5"></line>
    <line x1="222.97" y1="47.85" x2="218.96" y2="52.31" stroke="#c9922a" stroke-width="0.4" opacity="0.5"></line>
    <line x1="232.15" y1="57.03" x2="227.69" y2="61.04" stroke="#c9922a" stroke-width="0.4" opacity="0.5"></line>
    <line x1="240.32" y1="67.11" x2="235.46" y2="70.64" stroke="#c9922a" stroke-width="0.4" opacity="0.5"></line>
    <line x1="247.39" y1="78.00" x2="242.19" y2="81.00" stroke="#c9922a" stroke-width="1.2" opacity="0.9"></line>
    <line x1="253.28" y1="89.56" x2="247.80" y2="92.01" stroke="#c9922a" stroke-width="0.4" opacity="0.5"></line>
    <line x1="257.93" y1="101.68" x2="252.22" y2="103.54" stroke="#c9922a" stroke-width="0.4" opacity="0.5"></line>
    <line x1="261.29" y1="114.22" x2="255.42" y2="115.47" stroke="#c9922a" stroke-width="0.4" opacity="0.5"></line>
    <line x1="263.32" y1="127.04" x2="257.35" y2="127.67" stroke="#c9922a" stroke-width="0.4" opacity="0.5"></line>
    <line x1="264.00" y1="140.00" x2="258.00" y2="140.00" stroke="#c9922a" stroke-width="1.2" opacity="0.9"></line>
    <line x1="263.32" y1="152.96" x2="257.35" y2="152.33" stroke="#c9922a" stroke-width="0.4" opacity="0.5"></line>
    <line x1="261.29" y1="165.78" x2="255.42" y2="164.53" stroke="#c9922a" stroke-width="0.4" opacity="0.5"></line>
    <line x1="257.93" y1="178.32" x2="252.22" y2="176.46" stroke="#c9922a" stroke-width="0.4" opacity="0.5"></line>
    <line x1="253.28" y1="190.44" x2="247.80" y2="187.99" stroke="#c9922a" stroke-width="0.4" opacity="0.5"></line>
    <line x1="247.39" y1="202.00" x2="242.19" y2="199.00" stroke="#c9922a" stroke-width="1.2" opacity="0.9"></line>
    <line x1="240.32" y1="212.89" x2="235.46" y2="209.36" stroke="#c9922a" stroke-width="0.4" opacity="0.5"></line>
    <line x1="232.15" y1="222.97" x2="227.69" y2="218.96" stroke="#c9922a" stroke-width="0.4" opacity="0.5"></line>
    <line x1="222.97" y1="232.15" x2="218.96" y2="227.69" stroke="#c9922a" stroke-width="0.4" opacity="0.5"></line>
    <line x1="212.89" y1="240.32" x2="209.36" y2="235.46" stroke="#c9922a" stroke-width="0.4" opacity="0.5"></line>
    <line x1="202.00" y1="247.39" x2="199.00" y2="242.19" stroke="#c9922a" stroke-width="1.2" opacity="0.9"></line>
    <line x1="190.44" y1="253.28" x2="187.99" y2="247.80" stroke="#c9922a" stroke-width="0.4" opacity="0.5"></line>
    <line x1="178.32" y1="257.93" x2="176.46" y2="252.22" stroke="#c9922a" stroke-width="0.4" opacity="0.5"></line>
    <line x1="165.78" y1="261.29" x2="164.53" y2="255.42" stroke="#c9922a" stroke-width="0.4" opacity="0.5"></line>
    <line x1="152.96" y1="263.32" x2="152.33" y2="257.35" stroke="#c9922a" stroke-width="0.4" opacity="0.5"></line>
    <line x1="140.00" y1="264.00" x2="140.00" y2="258.00" stroke="#c9922a" stroke-width="1.2" opacity="0.9"></line>
    <line x1="127.04" y1="263.32" x2="127.67" y2="257.35" stroke="#c9922a" stroke-width="0.4" opacity="0.5"></line>
    <line x1="114.22" y1="261.29" x2="115.47" y2="255.42" stroke="#c9922a" stroke-width="0.4" opacity="0.5"></line>
    <line x1="101.68" y1="257.93" x2="103.54" y2="252.22" stroke="#c9922a" stroke-width="0.4" opacity="0.5"></line>
    <line x1="89.56" y1="253.28" x2="92.01" y2="247.80" stroke="#c9922a" stroke-width="0.4" opacity="0.5"></line>
    <line x1="78.00" y1="247.39" x2="81.00" y2="242.19" stroke="#c9922a" stroke-width="1.2" opacity="0.9"></line>
    <line x1="67.11" y1="240.32" x2="70.64" y2="235.46" stroke="#c9922a" stroke-width="0.4" opacity="0.5"></line>
    <line x1="57.03" y1="232.15" x2="61.04" y2="227.69" stroke="#c9922a" stroke-width="0.4" opacity="0.5"></line>
    <line x1="47.85" y1="222.97" x2="52.31" y2="218.96" stroke="#c9922a" stroke-width="0.4" opacity="0.5"></line>
    <line x1="39.68" y1="212.89" x2="44.54" y2="209.36" stroke="#c9922a" stroke-width="0.4" opacity="0.5"></line>
    <line x1="32.61" y1="202.00" x2="37.81" y2="199.00" stroke="#c9922a" stroke-width="1.2" opacity="0.9"></line>
    <line x1="26.72" y1="190.44" x2="32.20" y2="187.99" stroke="#c9922a" stroke-width="0.4" opacity="0.5"></line>
    <line x1="22.07" y1="178.32" x2="27.78" y2="176.46" stroke="#c9922a" stroke-width="0.4" opacity="0.5"></line>
    <line x1="18.71" y1="165.78" x2="24.58" y2="164.53" stroke="#c9922a" stroke-width="0.4" opacity="0.5"></line>
    <line x1="16.68" y1="152.96" x2="22.65" y2="152.33" stroke="#c9922a" stroke-width="0.4" opacity="0.5"></line>
    <line x1="16.00" y1="140.00" x2="22.00" y2="140.00" stroke="#c9922a" stroke-width="1.2" opacity="0.9"></line>
    <line x1="16.68" y1="127.04" x2="22.65" y2="127.67" stroke="#c9922a" stroke-width="0.4" opacity="0.5"></line>
    <line x1="18.71" y1="114.22" x2="24.58" y2="115.47" stroke="#c9922a" stroke-width="0.4" opacity="0.5"></line>
    <line x1="22.07" y1="101.68" x2="27.78" y2="103.54" stroke="#c9922a" stroke-width="0.4" opacity="0.5"></line>
    <line x1="26.72" y1="89.56" x2="32.20" y2="92.01" stroke="#c9922a" stroke-width="0.4" opacity="0.5"></line>
    <line x1="32.61" y1="78.00" x2="37.81" y2="81.00" stroke="#c9922a" stroke-width="1.2" opacity="0.9"></line>
    <line x1="39.68" y1="67.11" x2="44.54" y2="70.64" stroke="#c9922a" stroke-width="0.4" opacity="0.5"></line>
    <line x1="47.85" y1="57.03" x2="52.31" y2="61.04" stroke="#c9922a" stroke-width="0.4" opacity="0.5"></line>
    <line x1="57.03" y1="47.85" x2="61.04" y2="52.31" stroke="#c9922a" stroke-width="0.4" opacity="0.5"></line>
    <line x1="67.11" y1="39.68" x2="70.64" y2="44.54" stroke="#c9922a" stroke-width="0.4" opacity="0.5"></line>
    <line x1="78.00" y1="32.61" x2="81.00" y2="37.81" stroke="#c9922a" stroke-width="1.2" opacity="0.9"></line>
    <line x1="89.56" y1="26.72" x2="92.01" y2="32.20" stroke="#c9922a" stroke-width="0.4" opacity="0.5"></line>
    <line x1="101.68" y1="22.07" x2="103.54" y2="27.78" stroke="#c9922a" stroke-width="0.4" opacity="0.5"></line>
    <line x1="114.22" y1="18.71" x2="115.47" y2="24.58" stroke="#c9922a" stroke-width="0.4" opacity="0.5"></line>
    <line x1="127.04" y1="16.68" x2="127.67" y2="22.65" stroke="#c9922a" stroke-width="0.4" opacity="0.5"></line>

  
  <text fill="#c9922a" font-family="&#39;Courier Prime&#39;, ui-monospace, monospace" font-size="10.6" letter-spacing="3">
    <textPath href="#thqArcTop" startOffset="14%">THE HUMAN QUESTION · TEN DOMAINS · ONGOING</textPath>
  </text>

  
  <text fill="#c9922a" font-family="&#39;Courier Prime&#39;, ui-monospace, monospace" font-size="10.6" letter-spacing="3">
    <textPath href="#thqArcBot" startOffset="32%">NOS PROJECT · PUBLIC INTELLIGENCE · REV 1.0</textPath>
  </text>

  
  <text x="140" y="184.8" text-anchor="middle" font-family="&#39;Libre Baskerville&#39;, Georgia, serif" font-style="italic" font-weight="700" font-size="168" fill="#c9922a">?</text>

  
  <text x="140" y="224" text-anchor="middle" font-family="&#39;Courier Prime&#39;, ui-monospace, monospace" font-size="11.2" letter-spacing="3" fill="#c9922a" opacity="0.7">THQ · MMXXVI</text>
</svg>